HIERARCHY
ROOT Hips
{
	OFFSET 0.000000 0.000000 0.000000 
	CHANNELS 6 Xposition Yposition Zposition Zrotation Yrotation Xrotation
	JOINT LeftUpLeg
	{
		OFFSET 1.363060 -1.794630 0.839290 
		CHANNELS 3 Zrotation Yrotation Xrotation
		JOINT LeftLeg
		{
			OFFSET 2.448110 -6.726130 0.000000 
			CHANNELS 3 Zrotation Yrotation Xrotation
			JOINT LeftFoot
			{
				OFFSET 2.562200 -7.039590 0.000000 
				CHANNELS 3 Zrotation Yrotation Xrotation
				JOINT LeftToeBase
				{
					OFFSET 0.157640 -0.433110 2.322550 
					CHANNELS 3 Zrotation Yrotation Xrotation
					End Site
					{
						OFFSET 0.000000 0.000000 0.000000 
					}
				}
			}
		}
	}
	JOINT RightUpLeg
	{
		OFFSET -1.305520 -1.794630 0.839290 
		CHANNELS 3 Zrotation Yrotation Xrotation
		JOINT RightLeg
		{
			OFFSET -2.542530 -6.985550 0.000000 
			CHANNELS 3 Zrotation Yrotation Xrotation
			JOINT RightFoot
			{
				OFFSET -2.568260 -7.056230 0.000000 
				CHANNELS 3 Zrotation Yrotation Xrotation
				JOINT RightToeBase
				{
					OFFSET -0.164730 -0.452590 2.363150 
					CHANNELS 3 Zrotation Yrotation Xrotation
					End Site
					{
						OFFSET 0.000000 0.000000 0.000000 
					}
				}
			}
		}
	}
	JOINT Spine
	{
		OFFSET 0.028270 2.035590 -0.193380 
		CHANNELS 3 Zrotation Yrotation Xrotation
		JOINT Spine1
		{
			OFFSET 0.056720 2.048850 -0.042750 
			CHANNELS 3 Zrotation Yrotation Xrotation
			JOINT Neck1
			{
				OFFSET -0.054170 1.746240 0.172020 
				CHANNELS 3 Zrotation Yrotation Xrotation
				JOINT Head
				{
					OFFSET 0.104070 1.761360 -0.123970 
					CHANNELS 3 Zrotation Yrotation Xrotation
					End Site
					{
						OFFSET 0.000000 0.000000 0.000000 
					}
				}
			}
			JOINT LeftArm
			{
				OFFSET 3.362410 1.200890 -0.311210 
				CHANNELS 3 Zrotation Yrotation Xrotation
				JOINT LeftForeArm
				{
					OFFSET 4.983000 -0.000000 -0.000000 
					CHANNELS 3 Zrotation Yrotation Xrotation
					JOINT LeftHand
					{
						OFFSET 3.483560 -0.000000 -0.000000 
						CHANNELS 3 Zrotation Yrotation Xrotation
						JOINT LeftHandIndex1
						{
							OFFSET 0.715260 -0.000000 -0.000000 
							CHANNELS 3 Zrotation Yrotation Xrotation
							End Site
							{
								OFFSET 0.000000 0.000000 0.000000 
							}
						}
					}
				}
			}
			JOINT RightArm
			{
				OFFSET -3.136600 1.374050 -0.404650 
				CHANNELS 3 Zrotation Yrotation Xrotation
				JOINT RightForeArm
				{
					OFFSET -5.241900 -0.000000 -0.000000 
					CHANNELS 3 Zrotation Yrotation Xrotation
					JOINT RightHand
					{
						OFFSET -3.444170 -0.000000 -0.000000 
						CHANNELS 3 Zrotation Yrotation Xrotation
						JOINT RightHandIndex1
						{
							OFFSET -0.622530 -0.000000 -0.000000 
							CHANNELS 3 Zrotation Yrotation Xrotation
							End Site
							{
								OFFSET 0.000000 0.000000 0.000000 
							}
						}
					}
				}
			}
		}
	}
}
MOTION
Frames: 13
Frame Time: 0.041667
-0.666121 17.749312 -28.610395 0.617292 1.917843 4.697008 -19.446050 -5.795296 -15.894368 2.060208 10.169688 35.672681 2.572021 -4.581563 0.318384 0.174700 -2.692700 -7.424300 14.905851 9.757860 -38.802386 -27.187977 -17.901135 109.704840 0.291698 -11.662123 27.435297 -0.112800 -2.165500 5.963400 1.041264 1.450051 -0.370373 0.462233 0.496732 -11.164250 9.096120 -5.779026 3.756339 1.495300 -2.529200 5.508100 -82.278689 7.693320 40.599166 125.337260 -55.727730 -91.725431 -0.187608 -0.590704 -34.526023 -7.125000 0.000000 0.000000 70.985189 -27.245402 44.077703 -101.574241 62.957116 -72.684819 0.641446 -0.435418 -14.567314 7.125000 0.000000 0.000000 
-0.665916 17.749827 -28.128993 0.822478 2.364012 5.071492 -19.636277 -6.110521 -14.313779 1.929943 9.901762 35.123598 2.373925 -4.119365 0.648980 0.284600 -3.430800 -9.480500 14.361885 9.781515 -41.603141 -27.000396 -18.260457 108.979043 0.210678 -10.880284 27.288079 -0.089300 -1.927000 5.303900 1.210568 0.893784 -0.680844 1.058572 0.251577 -11.738421 8.915889 -5.417168 3.540425 1.503200 -2.405700 5.231200 -82.913290 6.204387 40.169307 125.885534 -55.489983 -92.175412 -0.185052 -0.573990 -33.047628 -7.125000 0.000000 0.000000 70.244586 -29.394131 44.374126 -103.765981 62.871665 -74.323541 0.575846 -0.459341 -14.744176 7.125000 0.000000 0.000000 
-0.659124 17.790990 -27.619806 0.876797 2.964152 5.402104 -19.557090 -6.523148 -12.583330 1.742813 9.586241 34.383118 2.154728 -3.658878 1.565123 0.429600 -4.206400 -11.657900 14.148289 9.608255 -43.748573 -26.522697 -18.668398 107.341932 0.223438 -10.223813 26.768845 -0.035600 -1.218200 3.349500 1.547767 0.113534 -1.293863 1.945902 -0.061518 -12.838512 8.776997 -4.808248 3.008307 1.637000 -2.210100 4.549000 -84.030832 6.682672 39.154609 127.478943 -54.876973 -93.396875 -0.195116 -0.544282 -31.898141 -7.125000 0.000000 0.000000 68.537822 -32.175024 45.607026 -106.271479 62.768148 -76.172412 0.500639 -0.458365 -15.347341 7.125000 0.000000 0.000000 
-0.654596 17.875683 -27.068941 0.440073 5.538353 6.313074 -18.429478 -8.368803 -10.924320 1.461321 9.267580 33.392937 2.112522 -3.689570 3.186801 0.715500 -5.405700 -15.069500 14.826141 7.548728 -45.882798 -25.778785 -19.181525 105.025565 0.449912 -9.550766 24.864348 -0.000200 0.087200 -0.239700 1.570241 -1.052853 -1.091548 1.617182 -0.723822 -11.660600 8.463882 -5.032752 3.805097 1.332900 -2.236700 5.281100 -84.065848 4.307760 39.046188 128.650287 -54.395251 -94.308442 -0.212354 -0.518265 -31.878339 -7.125000 0.000000 0.000000 69.174332 -31.940475 44.899073 -108.026652 62.448052 -77.507740 0.466411 -0.483536 -16.213722 7.125000 0.000000 0.000000 
-0.659432 17.963977 -26.532689 0.289201 6.497252 6.732094 -17.821688 -8.811430 -9.419486 1.175557 8.913251 32.380961 2.123454 -3.896868 5.228601 1.076300 -6.594500 -18.519600 15.201348 7.187163 -47.328777 -24.878770 -19.580349 102.279702 0.675793 -9.055507 22.891465 -0.197700 2.863300 -7.898300 1.719405 -1.778440 -1.124582 1.903299 -1.097240 -11.444607 8.439461 -4.825127 4.107546 1.304000 -2.106300 5.516800 -84.587515 3.274095 38.513021 130.347149 -53.660325 -95.581315 -0.218581 -0.512816 -32.910078 -7.125000 0.000000 0.000000 68.844697 -32.671763 45.058836 -109.987214 62.151444 -78.982350 0.413654 -0.493505 -17.072595 7.125000 0.000000 0.000000 
-0.664578 18.062666 -25.995614 -0.003153 6.757279 7.001146 -17.138764 -8.664477 -8.053414 0.853465 8.521816 31.262132 2.215560 -4.316761 7.903064 1.305700 -7.238600 -20.424300 15.728076 7.616660 -48.259000 -23.931939 -19.885140 98.930392 0.485947 -9.401252 25.107591 -0.011800 -0.700300 1.924500 2.046166 -2.380594 -1.319636 2.544021 -1.384503 -11.635584 8.505172 -4.263136 4.342696 1.433800 -1.831100 5.577300 -85.358986 3.052514 37.726992 132.149749 -52.825342 -96.909495 -0.218840 -0.521575 -34.770331 -7.125000 0.000000 0.000000 67.592601 -33.843974 45.920747 -112.168001 61.835773 -80.613742 0.347783 -0.493225 -17.899250 7.125000 0.000000 0.000000 
-0.666739 18.177820 -25.443308 -0.219239 6.831667 7.286320 -16.527801 -8.341713 -6.754048 0.487817 8.071146 29.995079 2.358832 -4.848710 11.033963 1.593500 -7.962400 -22.599900 16.103568 8.190512 -48.866703 -22.746277 -20.130775 95.149724 0.577804 -9.573159 25.073422 -0.235800 -3.125500 8.628400 2.322716 -2.903551 -1.358001 3.076865 -1.647209 -11.404987 8.354596 -3.779630 4.329347 1.413100 -1.605900 5.617700 -85.865065 2.506383 36.970422 133.532087 -52.137692 -97.925404 -0.207924 -0.531916 -36.888597 -7.125000 0.000000 0.000000 66.533755 -34.634662 46.625436 -114.208681 61.476363 -82.141994 0.288578 -0.488180 -18.476584 7.125000 0.000000 0.000000 
-0.666327 18.297295 -24.883696 -0.377324 6.674157 7.645568 -15.970334 -7.902998 -5.616975 0.078903 7.561284 28.597017 2.578237 -5.557231 14.776751 1.961800 -8.786100 -25.128400 16.371580 8.926230 -49.266604 -21.337522 -20.285790 91.041384 0.811776 -9.299051 23.353752 -0.145800 -2.460300 6.779600 2.518418 -3.188730 -1.396997 3.396204 -1.802155 -11.173757 7.952343 -3.632118 4.096054 1.221300 -1.566000 5.569700 -86.065648 2.081551 36.595051 134.619640 -51.578430 -98.718783 -0.205483 -0.535820 -39.058614 -7.125000 0.000000 0.000000 66.045556 -35.397077 46.731727 -115.589117 61.214698 -83.184143 0.244912 -0.495886 -18.682768 7.125000 0.000000 0.000000 
-0.665504 18.416360 -24.329641 -0.733670 6.593194 8.171881 -15.048193 -7.698634 -4.616366 -0.390845 6.991741 26.994508 2.864127 -6.275601 19.194092 2.250600 -9.369700 -26.958800 16.848324 9.607047 -49.643796 -19.844897 -20.333336 86.585320 1.147967 -9.724152 21.880504 -0.013800 -0.757900 2.082900 2.703605 -3.398852 -1.545837 3.520154 -1.933937 -11.142478 7.745859 -3.584418 4.095871 1.108600 -1.550800 5.595100 -86.023022 2.066857 36.481559 135.589128 -51.059209 -99.428324 -0.191668 -0.526365 -41.224789 -7.125000 0.000000 0.000000 65.872423 -36.466941 46.554384 -116.667516 61.015286 -83.995632 0.208412 -0.508159 -18.529615 7.125000 0.000000 0.000000 
-0.662828 18.532748 -23.769618 -1.183379 6.198896 8.706557 -14.053546 -7.412197 -3.726169 -0.861167 6.393519 25.274820 3.103269 -6.477413 24.338596 2.310900 -9.485700 -27.326800 17.360313 10.459651 -49.688933 -18.179158 -20.232778 81.747037 1.046373 -9.304026 22.245159 -0.032900 -1.171400 3.220500 2.803153 -3.333672 -1.444428 3.355768 -1.976171 -10.666354 7.697200 -3.725760 4.902136 1.005900 -1.546600 6.222700 -85.569141 1.338885 36.741017 136.284121 -50.656415 -99.946817 -0.158674 -0.514351 -42.885115 -7.125000 0.000000 0.000000 66.431318 -36.947141 45.723324 -117.602923 60.770545 -84.718813 0.193075 -0.526906 -18.312634 7.125000 0.000000 0.000000 
-0.654493 18.643374 -23.191482 -1.303333 5.408948 8.850235 -13.561363 -6.768882 -2.681738 -1.270416 5.774507 23.541195 3.347099 -6.232934 30.321614 2.396000 -9.646400 -27.839000 17.451021 11.299981 -49.070638 -16.393028 -19.961286 76.661207 0.928362 -8.721098 22.377130 -0.009000 -0.613700 1.686400 3.042790 -3.369776 -1.785028 3.772798 -1.985147 -11.150880 7.714952 -3.392613 4.642525 1.124300 -1.431200 5.878700 -85.674894 2.492228 36.516571 137.013601 -50.247276 -100.467357 -0.141717 -0.509128 -43.515379 -7.125000 0.000000 0.000000 65.448102 -38.939313 46.071415 -118.731394 60.644309 -85.532443 0.155058 -0.521806 -18.290721 7.125000 0.000000 0.000000 
-0.644820 18.732389 -22.613038 -1.170631 4.579045 8.874135 -13.297328 -6.116659 -1.670887 -1.638554 5.174111 21.737330 3.830633 -5.941758 37.544322 2.198600 -9.268000 -26.637200 17.189339 11.948165 -48.181462 -14.621665 -19.552843 71.508806 0.957075 -8.718094 22.368165 -0.001100 0.219000 -0.601600 3.150615 -3.350145 -1.860719 4.060726 -1.988650 -11.158073 7.670100 -3.264077 4.841795 1.153400 -1.373100 5.911300 -85.446961 2.899917 36.413825 137.435978 -50.001207 -100.760996 -0.125528 -0.519941 -43.068140 -7.125000 0.000000 0.000000 65.049321 -40.078559 45.890766 -119.329796 60.586405 -85.968009 0.132702 -0.516709 -18.256590 7.125000 0.000000 0.000000 
-0.631133 18.812143 -22.034182 -1.193001 3.975657 8.952542 -12.777968 -5.763773 -0.611839 -1.806067 4.770285 20.016750 4.264545 -4.216428 43.700539 1.894400 -8.642600 -24.683500 17.101544 12.284799 -47.224480 -12.816073 -18.987734 66.229511 1.033067 -8.945167 22.376670 -0.016000 0.817000 -2.245400 3.226203 -3.321917 -1.816290 4.091682 -2.024918 -10.854643 7.661844 -3.201390 4.947995 1.164000 -1.337600 5.979000 -84.999448 2.800705 36.623275 137.357339 -50.049580 -100.699106 -0.124239 -0.523675 -42.104651 -7.125000 0.000000 0.000000 65.129720 -40.831659 45.380821 -119.673418 60.553000 -86.214864 0.137979 -0.514358 -18.098264 7.125000 0.000000 0.000000 
